<svg width="70" height="70" viewBox="0 0 70 70" fill="none" xmlns="http://www.w3.org/2000/svg">
<g filter="url(#filter0_i_40_6)">
<g clip-path="url(#clip0_40_6)">
<path d="M68.3576 20.4167H60.1722L57.8972 12.8333C55.5593 5.03672 49.9798 0 43.6812 0H26.3179C20.0206 0 14.4398 5.03672 12.1005 12.8333L9.82549 20.4167H1.6415C0.573722 20.4167 -0.209677 21.7547 0.0500888 23.1346L0.870402 27.5096C1.05224 28.4831 1.70849 29.1667 2.46181 29.1667H5.20576C3.36962 31.3049 2.18701 34.413 2.18701 37.9167V46.6667C2.18701 49.6052 3.02919 52.2576 4.37451 54.3102V64.1667C4.37451 67.3878 6.33369 70 8.74951 70H13.1245C15.5403 70 17.4995 67.3878 17.4995 64.1667V58.3333H52.4996V64.1667C52.4996 67.3878 54.4588 70 56.8746 70H61.2496C63.6654 70 65.6246 67.3878 65.6246 64.1667V54.3102C66.9699 52.2594 67.8121 49.607 67.8121 46.6667V37.9167C67.8121 34.413 66.6295 31.3049 64.7947 29.1667H67.5387C68.292 29.1667 68.9482 28.4831 69.1301 27.5096L69.9504 23.1346C70.2088 21.7547 69.4254 20.4167 68.3576 20.4167ZM20.2243 17.1664C21.221 13.8451 23.6341 11.6667 26.3179 11.6667H43.6812C46.365 11.6667 48.7781 13.8451 49.7748 17.1664L52.4996 26.25H17.4995L20.2243 17.1664ZM13.1245 46.6302C10.4995 46.6302 8.74951 44.3042 8.74951 40.8151C8.74951 37.326 10.4995 35 13.1245 35C15.7495 35 19.687 40.2336 19.687 43.7227C19.687 47.2117 15.7495 46.6302 13.1245 46.6302ZM56.8746 46.6302C54.2496 46.6302 50.3121 47.2117 50.3121 43.7227C50.3121 40.2336 54.2496 35 56.8746 35C59.4996 35 61.2496 37.326 61.2496 40.8151C61.2496 44.3042 59.4996 46.6302 56.8746 46.6302Z" fill="#D9D9D9"/>
</g>
</g>
<defs>
<filter id="filter0_i_40_6" x="0" y="0" width="70" height="74" filterUnits="userSpaceOnUse" color-interpolation-filters="sRGB">
<feFlood flood-opacity="0" result="BackgroundImageFix"/>
<feBlend mode="normal" in="SourceGraphic" in2="BackgroundImageFix" result="shape"/>
<feColorMatrix in="SourceAlpha" type="matrix" values="0 0 0 0 0 0 0 0 0 0 0 0 0 0 0 0 0 0 127 0" result="hardAlpha"/>
<feOffset dy="4"/>
<feGaussianBlur stdDeviation="2"/>
<feComposite in2="hardAlpha" operator="arithmetic" k2="-1" k3="1"/>
<feColorMatrix type="matrix" values="0 0 0 0 0 0 0 0 0 0 0 0 0 0 0 0 0 0 0.25 0"/>
<feBlend mode="normal" in2="shape" result="effect1_innerShadow_40_6"/>
</filter>
<clipPath id="clip0_40_6">
<rect width="70" height="70" fill="white"/>
</clipPath>
</defs>
</svg>
