<svg width="65" height="50" viewBox="0 0 65 50" fill="none" xmlns="http://www.w3.org/2000/svg">
<path d="M62.7834 35.3318L48.6461 30.6442C48.0422 30.4451 47.371 30.4031 46.7335 30.5246C46.0961 30.6462 45.527 30.9246 45.1118 31.318L38.851 37.2361C29.0253 33.6519 21.1178 27.534 16.4851 19.9321L24.1343 15.0882C24.6439 14.7676 25.0045 14.3273 25.1617 13.8339C25.3188 13.3405 25.2639 12.8209 25.0053 12.3538L18.9465 1.41613C18.6626 0.912616 18.1605 0.501512 17.5269 0.253708C16.8932 0.00590357 16.1676 -0.063068 15.4753 0.0586859L2.3478 2.40248C1.68028 2.52174 1.08471 2.81252 0.658311 3.22738C0.231908 3.64223 -0.000153769 4.15666 7.64448e-08 4.6867C7.64448e-08 29.736 26.2423 50 58.5687 50C59.254 50.0003 59.9192 49.8209 60.4557 49.491C60.9921 49.1611 61.3682 48.7002 61.5224 48.1836L64.5518 38.0271C64.7081 37.4889 64.6171 36.9253 64.2943 36.4333C63.9716 35.9414 63.4373 35.5518 62.7834 35.3318Z" fill="#6E6D6D"/>
</svg>
