<svg width="70" height="70" viewBox="0 0 70 70" fill="none" xmlns="http://www.w3.org/2000/svg">
<g filter="url(#filter0_i_42_31)">
<path d="M64.1813 40.5075L69.9262 15.2298C70.341 13.4047 68.9538 11.6667 67.0821 11.6667H19.3482L18.2343 6.22103C17.9567 4.86369 16.7623 3.88892 15.3768 3.88892H2.91667C1.30582 3.88892 0 5.19473 0 6.80558V8.75003C0 10.3609 1.30582 11.6667 2.91667 11.6667H11.4094L19.9465 53.4036C17.9041 54.5782 16.5278 56.7805 16.5278 59.3056C16.5278 63.0642 19.5747 66.1111 23.3333 66.1111C27.0919 66.1111 30.1389 63.0642 30.1389 59.3056C30.1389 57.4008 29.3554 55.6798 28.0943 54.4445H53.5722C52.3113 55.6798 51.5278 57.4008 51.5278 59.3056C51.5278 63.0642 54.5747 66.1111 58.3333 66.1111C62.0919 66.1111 65.1389 63.0642 65.1389 59.3056C65.1389 56.6111 63.5726 54.2826 61.3012 53.18L61.9716 50.2298C62.3864 48.4047 60.9992 46.6667 59.1275 46.6667H26.5073L25.7119 42.7778H61.3371C62.699 42.7778 63.8795 41.8355 64.1813 40.5075Z" fill="#D9D9D9"/>
</g>
<defs>
<filter id="filter0_i_42_31" x="0" y="0" width="70" height="74" filterUnits="userSpaceOnUse" color-interpolation-filters="sRGB">
<feFlood flood-opacity="0" result="BackgroundImageFix"/>
<feBlend mode="normal" in="SourceGraphic" in2="BackgroundImageFix" result="shape"/>
<feColorMatrix in="SourceAlpha" type="matrix" values="0 0 0 0 0 0 0 0 0 0 0 0 0 0 0 0 0 0 127 0" result="hardAlpha"/>
<feOffset dy="4"/>
<feGaussianBlur stdDeviation="2"/>
<feComposite in2="hardAlpha" operator="arithmetic" k2="-1" k3="1"/>
<feColorMatrix type="matrix" values="0 0 0 0 0 0 0 0 0 0 0 0 0 0 0 0 0 0 0.25 0"/>
<feBlend mode="normal" in2="shape" result="effect1_innerShadow_42_31"/>
</filter>
</defs>
</svg>
