<svg width="90" height="90" viewBox="0 0 90 90" fill="none" xmlns="http://www.w3.org/2000/svg">
<path d="M75.9375 5.625H14.0625C9.4043 5.625 5.625 9.4043 5.625 14.0625V75.9375C5.625 80.5957 9.4043 84.375 14.0625 84.375H75.9375C80.5957 84.375 84.375 80.5957 84.375 75.9375V14.0625C84.375 9.4043 80.5957 5.625 75.9375 5.625ZM67.3418 33.5391C67.377 34.0312 67.3769 34.541 67.3769 35.0332C67.3769 50.2734 55.7754 67.834 34.5762 67.834C28.0371 67.834 21.9727 65.9355 16.875 62.666C17.8066 62.7715 18.7031 62.8066 19.6523 62.8066C25.0488 62.8066 30.0059 60.9785 33.9609 57.8848C28.8984 57.7793 24.6445 54.457 23.1855 49.8867C24.9609 50.1504 26.5605 50.1504 28.3887 49.6758C23.1152 48.6035 19.1602 43.9629 19.1602 38.3555V38.2148C20.6895 39.0762 22.4824 39.6035 24.3633 39.6738C22.782 38.622 21.4857 37.1951 20.5901 35.5204C19.6945 33.8457 19.2274 31.9753 19.2305 30.0762C19.2305 27.9316 19.793 25.9629 20.7949 24.2578C26.4727 31.2539 34.998 35.8242 44.5605 36.3164C42.9258 28.4941 48.7793 22.1484 55.8105 22.1484C59.1328 22.1484 62.1211 23.5371 64.2305 25.7871C66.832 25.2949 69.3281 24.3281 71.543 23.0098C70.6816 25.6816 68.8711 27.9316 66.4805 29.3555C68.8008 29.1094 71.0508 28.459 73.125 27.5625C71.5605 29.8652 69.5918 31.9043 67.3418 33.5391Z" fill="#6E6D6D"/>
</svg>
