<svg width="65" height="50" viewBox="0 0 65 50" fill="none" xmlns="http://www.w3.org/2000/svg">
<path d="M63.402 16.5104C63.8943 16.1068 64.6264 16.4844 64.6264 17.1224V43.75C64.6264 47.2005 61.9126 50 58.5677 50H6.05872C2.7138 50 0 47.2005 0 43.75V17.1354C0 16.4844 0.719473 16.1198 1.22437 16.5234C4.05177 18.7891 7.80061 21.6667 20.6754 31.3151C23.3387 33.3203 27.8323 37.5391 32.3132 37.513C36.8194 37.5521 41.4013 33.2422 43.9636 31.3151C56.8384 21.6667 60.5746 18.776 63.402 16.5104ZM32.3132 33.3333C35.2416 33.3854 39.4574 29.5312 41.578 27.9427C58.3278 15.4036 59.6027 14.3099 63.4651 11.1849C64.1972 10.599 64.6264 9.6875 64.6264 8.72396V6.25C64.6264 2.79948 61.9126 0 58.5677 0H6.05872C2.7138 0 0 2.79948 0 6.25V8.72396C0 9.6875 0.42916 10.5859 1.16126 11.1849C5.02369 14.2969 6.29855 15.4036 23.0484 27.9427C25.1689 29.5312 29.3848 33.3854 32.3132 33.3333Z" fill="#6E6D6D"/>
</svg>
